<svg xmlns="http://www.w3.org/2000/svg" viewBox="0 0 1920 1080" width="1920" height="1080">
  <defs>
    <linearGradient id="bg" x1="0" y1="0" x2="0" y2="1">
      <stop offset="0%" stop-color="#F8F9FB"/>
      <stop offset="100%" stop-color="#EFF2F6"/>
    </linearGradient>
    <filter id="cardShadow" x="-5%" y="-5%" width="110%" height="110%">
      <feDropShadow dx="0" dy="4" stdDeviation="8" flood-color="#0F172A" flood-opacity="0.06"/>
    </filter>
  </defs>

  <rect width="1920" height="1080" fill="url(#bg)"/>
  <pattern id="grid" width="40" height="40" patternUnits="userSpaceOnUse">
    <path d="M 40 0 L 0 0 0 40" fill="none" stroke="#E2E8F0" stroke-width="0.8" opacity="0.7"/>
  </pattern>
  <rect width="1920" height="1080" fill="url(#grid)"/>

  <!-- Header -->
  <g transform="translate(80, 80)">
    <text x="0" y="45" font-family="'Plus Jakarta Sans', system-ui, sans-serif" font-size="44" font-weight="900" fill="#0F172A" letter-spacing="-0.5">
      Interfaz Universal: Experiencia Multidispositivo (v2.0.0)
    </text>
    <text x="0" y="85" font-family="'Plus Jakarta Sans', system-ui, sans-serif" font-size="20" font-weight="500" fill="#475569">
      La capa de presentación, potenciada por Filament v3, ofrece una experiencia ergonómica y responsiva sin importar el hardware de acceso.
    </text>
  </g>

  <!-- Body Content -->
  <g transform="translate(80, 220)">
    <!-- Left Graphic: Desktop Monitor and Smartphone -->
    <g transform="translate(40, 20)">
      <!-- Monitor Stand -->
      <rect x="420" y="450" width="80" height="50" fill="#CBD5E1"/>
      <ellipse cx="460" cy="500" rx="140" ry="12" fill="#94A3B8"/>
      
      <!-- Monitor Screen -->
      <rect x="40" y="0" width="760" height="450" rx="16" fill="#0F172A" stroke="#334155" stroke-width="4" filter="url(#cardShadow)"/>
      <rect x="55" y="15" width="730" height="420" rx="10" fill="#FFFFFF"/>

      <!-- Dense Audit Table UI Mockup -->
      <rect x="55" y="15" width="160" height="420" fill="#0F172A"/>
      <text x="75" y="45" font-family="system-ui" font-size="12" font-weight="800" fill="#FFFFFF">Dense Audit Table</text>
      <rect x="230" y="35" width="535" height="30" rx="6" fill="#F1F5F9"/>
      
      <g transform="translate(230, 80)">
        <line x1="0" y1="0" x2="535" y2="0" stroke="#E2E8F0" stroke-width="2"/>
        <line x1="0" y1="40" x2="535" y2="40" stroke="#E2E8F0" stroke-width="1"/>
        <line x1="0" y1="80" x2="535" y2="80" stroke="#E2E8F0" stroke-width="1"/>
        <line x1="0" y1="120" x2="535" y2="120" stroke="#E2E8F0" stroke-width="1"/>
        <line x1="0" y1="160" x2="535" y2="160" stroke="#E2E8F0" stroke-width="1"/>
        <line x1="0" y1="200" x2="535" y2="200" stroke="#E2E8F0" stroke-width="1"/>
        <line x1="0" y1="240" x2="535" y2="240" stroke="#E2E8F0" stroke-width="1"/>
      </g>

      <!-- Smartphone in Foreground -->
      <g transform="translate(720, 100)">
        <rect width="250" height="450" rx="36" fill="#0F172A" stroke="#334155" stroke-width="4" filter="url(#cardShadow)"/>
        <rect x="12" y="12" width="226" height="426" rx="28" fill="#FFFFFF"/>
        <!-- Notch -->
        <rect x="80" y="18" width="90" height="12" rx="6" fill="#0F172A"/>
        
        <!-- Cards inside mobile -->
        <rect x="25" y="60" width="200" height="70" rx="10" fill="#FEF3C7" stroke="#F59E0B" stroke-width="1"/>
        <rect x="25" y="145" width="200" height="70" rx="10" fill="#F8FAFC" stroke="#E2E8F0" stroke-width="1"/>
        <rect x="25" y="230" width="200" height="70" rx="10" fill="#F8FAFC" stroke="#E2E8F0" stroke-width="1"/>
        
        <!-- Bottom bar -->
        <rect x="12" y="385" width="226" height="53" fill="#0F172A"/>
        <circle cx="50" cy="410" r="10" fill="#38BDF8"/>
        <circle cx="125" cy="410" r="10" fill="#64748B"/>
        <circle cx="200" cy="410" r="10" fill="#64748B"/>
      </g>
    </g>

    <!-- Right Side Details Cards -->
    <g transform="translate(1120, 40)">
      <!-- Card 1 -->
      <g transform="translate(0, 0)">
        <rect width="640" height="150" rx="16" fill="#FFFFFF" stroke="#003366" stroke-width="2" filter="url(#cardShadow)"/>
        <circle cx="40" cy="40" r="8" fill="#003366"/>
        <text x="60" y="45" font-family="system-ui" font-size="20" font-weight="900" fill="#0F172A">Modo Tabla (Auditoría):</text>
        <text x="60" y="78" font-family="system-ui" font-size="16" fill="#475569">Diseñado para monitores 4K y</text>
        <text x="60" y="104" font-family="system-ui" font-size="16" fill="#475569">administradores que requieren densidad de datos.</text>
      </g>

      <!-- Card 2 -->
      <g transform="translate(0, 180)">
        <rect width="640" height="150" rx="16" fill="#FFFFFF" stroke="#003366" stroke-width="2" filter="url(#cardShadow)"/>
        <circle cx="40" cy="40" r="8" fill="#003366"/>
        <text x="60" y="45" font-family="system-ui" font-size="20" font-weight="900" fill="#0F172A">Modo Cuadrícula (Táctil):</text>
        <text x="60" y="78" font-family="system-ui" font-size="16" fill="#475569">Optimizado para smartphones (hasta 320px) con</text>
        <text x="60" y="104" font-family="system-ui" font-size="16" fill="#475569">barra inferior fija y cajones contextuales.</text>
      </g>

      <!-- Card 3 -->
      <g transform="translate(0, 360)">
        <rect width="640" height="150" rx="16" fill="#FFFFFF" stroke="#003366" stroke-width="2" filter="url(#cardShadow)"/>
        <circle cx="40" cy="40" r="8" fill="#003366"/>
        <text x="60" y="45" font-family="system-ui" font-size="20" font-weight="900" fill="#0F172A">Accesibilidad:</text>
        <text x="60" y="78" font-family="system-ui" font-size="16" fill="#475569">Interfaz rápida y diseñada para reducir la fatiga</text>
        <text x="60" y="104" font-family="system-ui" font-size="16" fill="#475569">visual administrativa.</text>
      </g>
    </g>
  </g>

  <!-- Footer -->
  <g transform="translate(80, 1045)">
    <text x="0" y="0" font-family="system-ui, sans-serif" font-size="14" font-weight="600" fill="#94A3B8">
      SIGEDOR &bull; Proyecto de Investigación &bull; UNERG &bull; Frank Sousa &bull; Lámina 8 de 12
    </text>
    <text x="1760" y="0" text-anchor="end" font-family="system-ui, sans-serif" font-size="14" font-weight="600" fill="#64748B">
      ✦ Gemini Notebook
    </text>
  </g>
</svg>